<svg width="218" height="187" viewBox="0 0 218 187" fill="none" xmlns="http://www.w3.org/2000/svg">
<circle cx="203.5" cy="146.5" r="2.5" fill="#2AB16D"/>
<circle cx="215.5" cy="177.5" r="2.5" fill="#FB5347"/>
<circle cx="208.5" cy="183.5" r="2.5" fill="#F1C232"/>
<circle cx="201.5" cy="184.5" r="2.5" fill="#37AFDE"/>
<circle cx="190.5" cy="182.5" r="2.5" fill="#2AB16D"/>
<circle cx="175.5" cy="175.5" r="2.5" fill="#9B78FF"/>
<circle cx="157.5" cy="163.5" r="2.5" fill="#FB5347"/>
<circle cx="144.5" cy="151.5" r="2.5" fill="#F1C232"/>
<circle cx="130.5" cy="136.5" r="2.5" fill="#37AFDE"/>
<circle cx="118.5" cy="124.5" r="2.5" fill="#2AB16D"/>
<circle cx="104.5" cy="107.5" r="2.5" fill="#9B78FF"/>
<circle cx="90.5" cy="89.5" r="2.5" fill="#FB5347"/>
<circle cx="77.5" cy="74.5" r="2.5" fill="#F1C232"/>
<circle cx="66.5" cy="56.5" r="2.5" fill="#37AFDE"/>
<circle cx="50.5" cy="38.5" r="2.5" fill="#2AB16D"/>
<circle cx="40.5" cy="28.5" r="2.5" fill="#9B78FF"/>
<circle cx="29.5" cy="17.5" r="2.5" fill="#FB5347"/>
<circle cx="18.5" cy="9.5" r="2.5" fill="#F1C232"/>
<circle cx="5.5" cy="2.5" r="2.5" fill="#37AFDE"/>
<circle cx="2.5" cy="11.5" r="2.5" fill="#F1C232"/>
<circle cx="9.5" cy="22.5" r="2.5" fill="#37AFDE"/>
<circle cx="17.5" cy="30.5" r="2.5" fill="#2AB16D"/>
<circle cx="29.5" cy="39.5" r="2.5" fill="#FB5347"/>
<circle cx="45.5" cy="51.5" r="2.5" fill="#F1C232"/>
<circle cx="215.5" cy="166.5" r="2.5" fill="#9B78FF"/>
<circle cx="195" cy="136.5" r="2.5" fill="#37AFDE"/>
<circle cx="178.5" cy="122.5" r="2.5" fill="#F1C232"/>
<circle cx="161.5" cy="109.5" r="2.5" fill="#FB5347"/>
<circle cx="142.5" cy="98.5" r="2.5" fill="#9B78FF"/>
<circle cx="121.5" cy="88.5" r="2.5" fill="#2AB16D"/>
<circle cx="102.5" cy="76.5" r="2.5" fill="#37AFDE"/>
</svg>
